<svg xmlns="http://www.w3.org/2000/svg" width="35.115" height="35.115" viewBox="0 0 35.115 35.115"><defs><style>.a{fill:none;stroke:#425c42;stroke-width:3px;}</style></defs><path class="a" d="M29.334,1.928H7.923A5.352,5.352,0,0,0,2.571,7.281V28.69a5.352,5.352,0,0,0,5.352,5.353H18.628V19.993H14.614V15.978h4.014V12.968A5.018,5.018,0,0,1,23.646,7.95h5.018v4.014H23.646a1,1,0,0,0-1,1v3.011h5.52l-1,4.014H22.643v14.05h6.691a5.352,5.352,0,0,0,5.352-5.353V7.281a5.353,5.353,0,0,0-5.352-5.353Z" transform="translate(-1.071 -0.428)"/></svg>